<svg width="32" height="32" viewBox="0 0 32 32" fill="none" xmlns="http://www.w3.org/2000/svg">
  <!-- Fondo del círculo -->
  <circle cx="16" cy="16" r="16" fill="#FFFFFF" stroke="#E5E7EB" stroke-width="0.5"/>
  
  <!-- Caja registradora -->
  <rect x="8" y="10" width="16" height="12" rx="2" fill="#3B82F6"/>
  
  <!-- Pantalla -->
  <rect x="9" y="11" width="14" height="4" rx="1" fill="#1E40AF"/>
  
  <!-- Líneas en la pantalla -->
  <line x1="10" y1="12.5" x2="22" y2="12.5" stroke="#60A5FA" stroke-width="0.5"/>
  <line x1="10" y1="13.5" x2="18" y2="13.5" stroke="#60A5FA" stroke-width="0.5"/>
  
  <!-- Teclas del teclado -->
  <rect x="10" y="16" width="2" height="1.5" rx="0.2" fill="#1E40AF"/>
  <rect x="13" y="16" width="2" height="1.5" rx="0.2" fill="#1E40AF"/>
  <rect x="16" y="16" width="2" height="1.5" rx="0.2" fill="#1E40AF"/>
  <rect x="19" y="16" width="2" height="1.5" rx="0.2" fill="#1E40AF"/>
  
  <rect x="10" y="18" width="2" height="1.5" rx="0.2" fill="#1E40AF"/>
  <rect x="13" y="18" width="2" height="1.5" rx="0.2" fill="#1E40AF"/>
  <rect x="16" y="18" width="2" height="1.5" rx="0.2" fill="#1E40AF"/>
  <rect x="19" y="18" width="2" height="1.5" rx="0.2" fill="#1E40AF"/>
  
  <!-- Cajón -->
  <rect x="9" y="22" width="14" height="2" rx="1" fill="#1E40AF"/>
  <rect x="10" y="23" width="12" height="0.5" fill="#3B82F6"/>
</svg>
